# xmcd
#
# Track frame offsets: 
#        150
#        20165
#        42270
#        62277
#
# Disc length: 1122 seconds
#
# Revision: 0
# Processed by: cddbd v1.5.2PL0 Copyright (c) Steve Scherf et al.
# Submitted via: ExactAudioCopyFreeDBPlugin 1.0
#
DISCID=2b046004
DTITLE=杉山纪彰 / TVアニメ「黒执事II」キャラクターソング04 「坚死神、独唱」ウィリアム・T・スピアーズ(杉山纪彰) [Sin
DTITLE=gle, Maxi]
DYEAR=2010
DGENRE=Anime
TTITLE0=死神の勤怠管理
TTITLE1=戒律の奴隷
TTITLE2=死神の勤怠管理(Off Vocal Version)
TTITLE3=戒律の奴隷(Off Vocal Version)
EXTD=
EXTT0=
EXTT1=
EXTT2=
EXTT3=
PLAYORDER=
